<svg width="31" height="31" viewBox="0 0 31 31" fill="none" xmlns="http://www.w3.org/2000/svg">
<path d="M9.02492 0.0834961H21.9749C26.9083 0.0834961 30.9166 4.09183 30.9166 9.02516V21.9752C30.9166 24.3466 29.9745 26.621 28.2976 28.2979C26.6207 29.9748 24.3464 30.9168 21.9749 30.9168H9.02492C4.09159 30.9168 0.083252 26.9085 0.083252 21.9752V9.02516C0.083252 6.65369 1.02532 4.37934 2.70221 2.70245C4.37909 1.02556 6.65344 0.0834961 9.02492 0.0834961ZM8.71659 3.16683C7.24463 3.16683 5.83297 3.75156 4.79214 4.79239C3.75132 5.83321 3.16659 7.24488 3.16659 8.71683V22.2835C3.16659 25.3514 5.64867 27.8335 8.71659 27.8335H22.2833C23.7552 27.8335 25.1669 27.2488 26.2077 26.2079C27.2485 25.1671 27.8333 23.7554 27.8333 22.2835V8.71683C27.8333 5.64891 25.3512 3.16683 22.2833 3.16683H8.71659ZM23.5937 5.47933C24.1048 5.47933 24.5949 5.68236 24.9563 6.04376C25.3177 6.40516 25.5208 6.89532 25.5208 7.40641C25.5208 7.91751 25.3177 8.40767 24.9563 8.76907C24.5949 9.13047 24.1048 9.3335 23.5937 9.3335C23.0826 9.3335 22.5924 9.13047 22.231 8.76907C21.8696 8.40767 21.6666 7.91751 21.6666 7.40641C21.6666 6.89532 21.8696 6.40516 22.231 6.04376C22.5924 5.68236 23.0826 5.47933 23.5937 5.47933ZM15.4999 7.79183C17.5443 7.79183 19.5049 8.60396 20.9505 10.0495C22.3961 11.4951 23.2083 13.4558 23.2083 15.5002C23.2083 17.5445 22.3961 19.5052 20.9505 20.9508C19.5049 22.3964 17.5443 23.2085 15.4999 23.2085C13.4555 23.2085 11.4949 22.3964 10.0493 20.9508C8.60371 19.5052 7.79159 17.5445 7.79159 15.5002C7.79159 13.4558 8.60371 11.4951 10.0493 10.0495C11.4949 8.60396 13.4555 7.79183 15.4999 7.79183ZM15.4999 10.8752C14.2733 10.8752 13.0969 11.3624 12.2295 12.2298C11.3622 13.0971 10.8749 14.2735 10.8749 15.5002C10.8749 16.7268 11.3622 17.9032 12.2295 18.7705C13.0969 19.6379 14.2733 20.1252 15.4999 20.1252C16.7265 20.1252 17.9029 19.6379 18.7703 18.7705C19.6376 17.9032 20.1249 16.7268 20.1249 15.5002C20.1249 14.2735 19.6376 13.0971 18.7703 12.2298C17.9029 11.3624 16.7265 10.8752 15.4999 10.8752Z" fill="white"/>
</svg>
