<svg width="29" height="37" viewBox="0 0 29 37" fill="none" xmlns="http://www.w3.org/2000/svg">
<path d="M14.5 0.5625C10.7635 0.566908 7.18123 2.0532 4.53909 4.69533C1.89696 7.33747 0.410667 10.9197 0.406259 14.6562C0.402823 17.7096 1.40013 20.6799 3.24551 23.1125C3.24551 23.1125 3.62988 23.6186 3.69267 23.6916L14.5 36.4375L25.3125 23.6852C25.3689 23.6173 25.7545 23.1125 25.7545 23.1125L25.7558 23.1087C27.5999 20.677 28.5967 17.7081 28.5938 14.6562C28.5894 10.9197 27.1031 7.33747 24.4609 4.69533C21.8188 2.0532 18.2366 0.566908 14.5 0.5625ZM14.5 19.7812C13.4864 19.7812 12.4955 19.4807 11.6527 18.9175C10.8099 18.3544 10.153 17.554 9.76513 16.6175C9.37723 15.681 9.27573 14.6506 9.47348 13.6564C9.67123 12.6623 10.1593 11.7491 10.8761 11.0323C11.5928 10.3156 12.506 9.82747 13.5002 9.62972C14.4943 9.43198 15.5248 9.53347 16.4613 9.92137C17.3977 10.3093 18.1981 10.9662 18.7613 11.809C19.3244 12.6518 19.625 13.6426 19.625 14.6562C19.6233 16.015 19.0828 17.3175 18.1221 18.2783C17.1613 19.2391 15.8587 19.7796 14.5 19.7812Z" fill="#333333"/>
</svg>
