<svg width="32" height="32" viewBox="0 0 32 32" fill="none" xmlns="http://www.w3.org/2000/svg">
<g clip-path="url(#clip0_886_897)">
<path d="M20.5332 21.3333C20.5332 19.86 16.3545 18.6666 11.1999 18.6666M20.5332 21.3333C20.5332 22.8066 16.3545 24 11.1999 24C6.0452 24 1.86654 22.8066 1.86654 21.3333M20.5332 21.3333V27.916C20.5332 29.4346 16.3545 30.6666 11.1999 30.6666C6.0452 30.6666 1.86654 29.436 1.86654 27.916V21.3333M20.5332 21.3333C25.6319 21.3333 29.8665 20.0173 29.8665 18.6666V5.33329M11.1999 18.6666C6.0452 18.6666 1.86654 19.86 1.86654 21.3333M11.1999 18.6666C5.3092 18.6666 0.533203 17.3506 0.533203 16V9.33329M11.1999 6.66663C5.3092 6.66663 0.533203 7.85996 0.533203 9.33329M0.533203 9.33329C0.533203 10.8066 5.3092 12 11.1999 12C11.1999 13.3506 15.5372 14.6666 20.6359 14.6666C25.7345 14.6666 29.8665 13.3506 29.8665 12M29.8665 5.33329C29.8665 3.85996 25.7332 2.66663 20.6359 2.66663C15.5385 2.66663 11.4052 3.85996 11.4052 5.33329M29.8665 5.33329C29.8665 6.80663 25.7332 7.99996 20.6359 7.99996C15.5385 7.99996 11.4052 6.80663 11.4052 5.33329M11.4052 5.33329V18.888" stroke="#333333" stroke-width="2"/>
</g>
<defs>
<clipPath id="clip0_886_897">
<rect width="32" height="32" fill="white"/>
</clipPath>
</defs>
</svg>
